<?xml version="1.0" standalone="no"?>
<!DOCTYPE svg PUBLIC "-//W3C//DTD SVG 20010904//EN"
 "http://www.w3.org/TR/2001/REC-SVG-20010904/DTD/svg10.dtd">
<svg version="1.0" xmlns="http://www.w3.org/2000/svg"
 width="226.000000pt" height="199.000000pt" viewBox="0 0 226.000000 199.000000"
 preserveAspectRatio="xMidYMid meet">
<metadata>
Created by potrace 1.16, written by Peter Selinger 2001-2019
</metadata>
<g transform="translate(0.000000,199.000000) scale(0.100000,-0.100000)"
fill="#000000" stroke="none">
<path d="M427 1843 c-4 -3 -7 -17 -7 -30 0 -20 -5 -23 -35 -23 -40 0 -100 -22
-129 -48 -10 -9 -27 -35 -37 -57 -17 -37 -19 -80 -19 -681 0 -617 1 -643 19
-665 l19 -24 603 -3 c564 -2 603 -1 622 15 18 17 -6 18 -599 23 l-619 5 -3
548 -2 547 690 0 690 0 0 -280 c0 -154 4 -280 9 -280 4 0 13 -48 18 -107 8
-85 10 -5 9 382 -1 461 -2 492 -20 528 -25 50 -80 86 -143 94 -47 5 -52 8 -57
35 -7 36 -30 33 -34 -5 -3 -25 -7 -27 -51 -27 -46 0 -49 2 -55 31 -7 37 -30
34 -34 -4 -3 -25 -7 -27 -51 -27 -46 0 -49 2 -55 31 -7 37 -30 34 -34 -4 -3
-25 -7 -27 -51 -27 -46 0 -49 2 -55 31 -7 37 -30 34 -34 -4 -3 -25 -7 -27 -51
-27 -46 0 -49 2 -55 31 -7 37 -30 34 -34 -4 -3 -25 -7 -27 -51 -27 -46 0 -49
2 -55 31 -7 37 -30 34 -34 -4 -3 -25 -7 -27 -51 -27 -46 0 -49 2 -55 31 -7 37
-30 34 -34 -4 -3 -25 -7 -27 -51 -27 -46 0 -49 2 -54 30 -6 29 -17 37 -30 23z
m1173 -156 c16 -26 20 -51 20 -124 l0 -93 -695 0 -695 0 2 83 2 82 3 -77 4
-78 684 0 685 0 0 90 c0 90 0 90 -37 132 -29 31 -32 38 -15 29 13 -7 32 -27
42 -44z"/>
<path d="M760 1200 l0 -71 68 3 67 3 0 65 0 65 -67 3 -68 3 0 -71z"/>
<path d="M960 1200 l0 -71 68 3 67 3 0 65 0 65 -67 3 -68 3 0 -71z"/>
<path d="M1160 1200 l0 -71 68 3 67 3 0 65 0 65 -67 3 -68 3 0 -71z"/>
<path d="M1360 1200 l0 -71 68 3 67 3 0 65 0 65 -67 3 -68 3 0 -71z"/>
<path d="M360 1000 l0 -71 68 3 67 3 0 65 0 65 -67 3 -68 3 0 -71z"/>
<path d="M560 1000 l0 -71 68 3 67 3 0 65 0 65 -67 3 -68 3 0 -71z"/>
<path d="M760 1000 l0 -71 68 3 67 3 0 65 0 65 -67 3 -68 3 0 -71z"/>
<path d="M960 1000 l0 -71 68 3 67 3 0 65 0 65 -67 3 -68 3 0 -71z"/>
<path d="M1160 1000 l0 -71 68 3 67 3 0 65 0 65 -67 3 -68 3 0 -71z"/>
<path d="M1360 1000 l0 -71 68 3 67 3 0 65 0 65 -67 3 -68 3 0 -71z"/>
<path d="M360 800 l0 -71 68 3 67 3 0 65 0 65 -67 3 -68 3 0 -71z"/>
<path d="M560 800 l0 -71 68 3 67 3 0 65 0 65 -67 3 -68 3 0 -71z"/>
<path d="M760 800 l0 -71 68 3 67 3 0 65 0 65 -67 3 -68 3 0 -71z"/>
<path d="M960 800 l0 -71 68 3 67 3 0 65 0 65 -67 3 -68 3 0 -71z"/>
<path d="M1160 800 l0 -71 68 3 67 3 0 65 0 65 -67 3 -68 3 0 -71z"/>
<path d="M1360 800 l0 -71 68 3 67 3 0 65 0 65 -67 3 -68 3 0 -71z"/>
<path d="M2070 863 c-8 -3 -73 -28 -143 -55 l-129 -50 21 -22 c12 -12 21 -26
20 -32 0 -5 -58 -69 -129 -143 l-128 -135 -35 30 c-20 16 -36 32 -36 36 -1 3
13 31 31 62 l32 56 34 -21 34 -20 -7 138 c-4 76 -9 142 -12 146 -3 5 -60 -82
-126 -193 l-121 -202 29 -22 c17 -11 46 -35 65 -52 l34 -32 -77 -82 c-42 -46
-77 -86 -77 -90 0 -3 13 -19 30 -35 l29 -28 87 78 86 79 32 -35 c17 -19 40
-48 52 -65 l21 -29 199 120 c109 65 201 120 203 122 12 8 -16 12 -147 18
l-143 8 20 -34 20 -33 -55 -33 c-30 -18 -58 -33 -62 -32 -4 0 -20 17 -37 36
l-29 36 139 133 140 132 26 -25 27 -25 20 54 c11 29 36 95 56 146 20 52 36 96
36 98 0 5 -11 4 -30 -3z"/>
<path d="M360 600 l0 -71 68 3 67 3 0 65 0 65 -67 3 -68 3 0 -71z"/>
<path d="M560 600 l0 -71 68 3 67 3 0 65 0 65 -67 3 -68 3 0 -71z"/>
<path d="M760 600 l0 -71 68 3 67 3 0 65 0 65 -67 3 -68 3 0 -71z"/>
</g>
</svg>
